<svg fill="none" height="165" viewBox="0 0 183 165" width="183" xmlns="http://www.w3.org/2000/svg"><g clip-rule="evenodd" fill-rule="evenodd"><path d="m171.152 56.5463c0-1.0231-.877-1.9001-1.9-1.9001h-26.602c-3.142 0-5.7-2.5579-5.7-5.7004s2.558-5.7004 5.7-5.7004h26.602c7.381 0 13.301 5.9927 13.301 13.3009v72.2777c0 7.382-5.993 13.301-13.301 13.301h-9.501v11.767c0 6.138-4.969 11.108-11.108 11.108-2.923 0-5.774-1.169-7.82-3.216l-19.586-19.586h-39.4642c-7.3813 0-13.3009-5.992-13.3009-13.301v-12.983c0-3.142 2.5578-5.7 5.7004-5.7.1324 0 .2637.004.3939.013h.0558 12.5343 3.9942c3.1425 0 5.7004 2.558 5.7004 5.7 0 3.143-2.5579 5.701-5.7004 5.701h-11.2778v7.269c0 1.024.8769 1.901 1.9001 1.901h41.8762c1.534 0 2.996.584 4.019 1.681l20.682 20.682v-16.736c0-3.143 2.558-5.7 5.701-5.7h15.201c1.023 0 1.9-.877 1.9-1.901v-7.057h-42.473c-3.143 0-5.701-2.558-5.701-5.701 0-3.142 2.558-5.7 5.701-5.7h42.473v-32.8211h-10.321c-3.142 0-5.7-2.5579-5.7-5.7004s2.558-5.7004 5.7-5.7004h10.321zm-26.056 42.6261h-2.88c-3.143 0-5.701-2.5578-5.701-5.7004 0-3.1425 2.558-5.7004 5.701-5.7004h2.88 7.965 2.88c3.143 0 5.701 2.5579 5.701 5.7004 0 3.1426-2.558 5.7004-5.701 5.7004h-2.88zm2.934-27.3274c0 3.1487-2.552 5.7012-5.701 5.7012s-5.701-2.5525-5.701-5.7012c0-3.1486 2.552-5.7011 5.701-5.7011s5.701 2.5525 5.701 5.7011zm-37.82 49.923c3.149 0 5.701-2.552 5.701-5.701s-2.552-5.701-5.701-5.701-5.701 2.552-5.701 5.701 2.552 5.701 5.701 5.701z" fill="#ec5d54"/><path d="m0 13.3009c0-7.30818 5.99272-13.3009 13.3009-13.3009h95.1531c7.308 0 13.301 5.91964 13.301 13.3009v72.3512c0 7.3082-5.92 13.3009-13.301 13.3009h-47.1382l-19.586 19.586c-2.0463 2.046-4.8965 3.216-7.8198 3.216-6.1388 0-11.1084-4.97-11.1084-11.109v-11.7661h-9.5007c-7.30818 0-13.3009-5.9196-13.3009-13.3009z" fill="#2188ff"/><path d="m66.2731 23.2573c-.9489-2.0914-3.0327-3.435-5.3292-3.4365-2.2966-.0014-4.382 1.3396-5.3335 3.4297l-4.8408 10.6332-10.9554.5236c-2.2788.109-4.287 1.5314-5.1458 3.645s-.412 4.5336 1.145 6.2011l8.7903 9.4146-3.2274 12.1638c-.6273 2.364.2806 4.8688 2.2769 6.2818 1.9962 1.413 4.6603 1.4366 6.6813.0593l10.6014-7.225 10.568 7.221c2.0258 1.3842 4.6998 1.3588 6.6989-.0637 1.9992-1.4224 2.8997-3.9404 2.2559-6.308l-3.3059-12.1588 8.8519-9.3571c1.5725-1.6623 2.0328-4.0883 1.1784-6.2111s-2.867-3.5535-5.1527-3.6628l-10.9356-.5233z" fill="#fff"/></g></svg>